# xmcd
#
# Track frame offsets: 
#        150
#        19112
#        41446
#        70634
#        85012
#        109268
#        124235
#        138095
#        153814
#        175825
#
# Disc length: 2561 seconds
#
# Revision: 1
# Processed by: cddbd v1.5.2PL0 Copyright (c) Steve Scherf et al.
# Submitted via: ExactAudioCopyFreeDBPlugin 1.0
#
DISCID=7309ff0a
DTITLE=Ms. Sharon Ridley - Full Moon
DYEAR=1978
DGENRE=Soul
TTITLE0=You Beat Me To The Punch
TTITLE1=Just You And Me (Walking Along Together)
TTITLE2=Changin'
TTITLE3=Forever Yours
TTITLE4=Ode To My Daddy
TTITLE5=Ain't That Peculiar
TTITLE6=Guess I'm Gonna Have To Say Goodbye
TTITLE7=Nothing Else Means More To Me Than Our Love
TTITLE8=Full Moon
TTITLE9=Changin' (Single Version)
EXTD=
EXTT0=
EXTT1=
EXTT2=
EXTT3=
EXTT4=
EXTT5=
EXTT6=
EXTT7=
EXTT8=
EXTT9=
PLAYORDER=
